<svg xmlns="http://www.w3.org/2000/svg" xmlns:xlink="http://www.w3.org/1999/xlink" width="1920" zoomAndPan="magnify" viewBox="0 0 1440 809.999993" height="1080" preserveAspectRatio="xMidYMid meet" version="1.0"><defs><clipPath id="02fb37c18d"><path d="M 0 536 L 569 536 L 569 810 L 0 810 Z M 0 536 " clip-rule="nonzero"/></clipPath><clipPath id="e119b6cd00"><path d="M 744.742188 801.804688 L 511.136719 1272.808594 L -120.449219 959.558594 L 113.15625 488.558594 Z M 744.742188 801.804688 " clip-rule="nonzero"/></clipPath><clipPath id="794e976511"><path d="M 744.742188 801.804688 L 511.136719 1272.808594 L -120.449219 959.558594 L 113.15625 488.558594 Z M 744.742188 801.804688 " clip-rule="nonzero"/></clipPath><clipPath id="fe5d8b14b5"><path d="M 726 0 L 1440 0 L 1440 533 L 726 533 Z M 726 0 " clip-rule="nonzero"/></clipPath><clipPath id="ec4d7b212a"><path d="M 914.414062 665.3125 L 695.96875 6.851562 L 1578.664062 -285.984375 L 1797.109375 372.476562 Z M 914.414062 665.3125 " clip-rule="nonzero"/></clipPath><clipPath id="87cc54d7bf"><path d="M 914.414062 665.3125 L 695.96875 6.851562 L 1578.664062 -285.984375 L 1797.109375 372.476562 Z M 914.414062 665.3125 " clip-rule="nonzero"/></clipPath><clipPath id="d108a947a5"><path d="M 828 653 L 1303 653 L 1303 810 L 828 810 Z M 828 653 " clip-rule="nonzero"/></clipPath><clipPath id="b24a3a9c57"><path d="M 1325.484375 1270.515625 L 858.515625 1301.554688 L 816.828125 674.4375 L 1283.796875 643.398438 Z M 1325.484375 1270.515625 " clip-rule="nonzero"/></clipPath><clipPath id="24ab4d17a2"><path d="M 1325.484375 1270.515625 L 858.515625 1301.554688 L 816.828125 674.4375 L 1283.796875 643.398438 Z M 1325.484375 1270.515625 " clip-rule="nonzero"/></clipPath><clipPath id="8502f7342e"><path d="M 952 409 L 1440 409 L 1440 810 L 952 810 Z M 952 409 " clip-rule="nonzero"/></clipPath><clipPath id="953e64ca56"><path d="M 928.757812 1007.371094 L 984.515625 336.933594 L 1564.511719 385.167969 L 1508.757812 1055.605469 Z M 928.757812 1007.371094 " clip-rule="nonzero"/></clipPath><clipPath id="303d8df0df"><path d="M 928.757812 1007.371094 L 984.515625 336.933594 L 1564.511719 385.167969 L 1508.757812 1055.605469 Z M 928.757812 1007.371094 " clip-rule="nonzero"/></clipPath><clipPath id="bf1e595e08"><path d="M 976 376 L 1440 376 L 1440 810 L 976 810 Z M 976 376 " clip-rule="nonzero"/></clipPath><clipPath id="e5ed6f255e"><path d="M 928.757812 1007.371094 L 984.515625 336.933594 L 1564.511719 385.167969 L 1508.757812 1055.605469 Z M 928.757812 1007.371094 " clip-rule="nonzero"/></clipPath><clipPath id="1e7df6746a"><path d="M 928.757812 1007.371094 L 984.515625 336.933594 L 1564.511719 385.167969 L 1508.757812 1055.605469 Z M 928.757812 1007.371094 " clip-rule="nonzero"/></clipPath><clipPath id="5f572645b8"><path d="M 1053 0 L 1440 0 L 1440 212 L 1053 212 Z M 1053 0 " clip-rule="nonzero"/></clipPath><clipPath id="e31a2236b8"><path d="M 1025.839844 201 L 1081.730469 -359.46875 L 1625.035156 -305.292969 L 1569.148438 255.179688 Z M 1025.839844 201 " clip-rule="nonzero"/></clipPath><clipPath id="dcaabc1e89"><path d="M 1025.839844 201 L 1081.730469 -359.46875 L 1625.035156 -305.292969 L 1569.148438 255.179688 Z M 1025.839844 201 " clip-rule="nonzero"/></clipPath><clipPath id="53358eed3e"><path d="M 1095 0 L 1440 0 L 1440 221 L 1095 221 Z M 1095 0 " clip-rule="nonzero"/></clipPath><clipPath id="c3b35e1e51"><path d="M 1025.839844 201 L 1081.730469 -359.46875 L 1625.035156 -305.292969 L 1569.148438 255.179688 Z M 1025.839844 201 " clip-rule="nonzero"/></clipPath><clipPath id="2841c0dc0f"><path d="M 1025.839844 201 L 1081.730469 -359.46875 L 1625.035156 -305.292969 L 1569.148438 255.179688 Z M 1025.839844 201 " clip-rule="nonzero"/></clipPath><clipPath id="8511024ee0"><path d="M 0 592 L 430 592 L 430 810 L 0 810 Z M 0 592 " clip-rule="nonzero"/></clipPath><clipPath id="ce1e36d4ff"><path d="M 191.769531 378.875 L 645.183594 1033.726562 L -5.96875 1484.574219 L -459.382812 829.726562 Z M 191.769531 378.875 " clip-rule="nonzero"/></clipPath><clipPath id="51c04dae68"><path d="M 191.769531 378.875 L 645.183594 1033.726562 L -5.96875 1484.574219 L -459.382812 829.726562 Z M 191.769531 378.875 " clip-rule="nonzero"/></clipPath><clipPath id="f733c921b4"><path d="M 0 629 L 450 629 L 450 810 L 0 810 Z M 0 629 " clip-rule="nonzero"/></clipPath><clipPath id="d49457908f"><path d="M 191.769531 378.875 L 645.183594 1033.726562 L -5.96875 1484.574219 L -459.382812 829.726562 Z M 191.769531 378.875 " clip-rule="nonzero"/></clipPath><clipPath id="19f73536f0"><path d="M 191.769531 378.875 L 645.183594 1033.726562 L -5.96875 1484.574219 L -459.382812 829.726562 Z M 191.769531 378.875 " clip-rule="nonzero"/></clipPath><clipPath id="1f5df432e5"><path d="M 0 0 L 501 0 L 501 290 L 0 290 Z M 0 0 " clip-rule="nonzero"/></clipPath><clipPath id="6d9545e28d"><path d="M 591.464844 -128.996094 L 324.84375 488.667969 L -209.5 258.011719 L 57.121094 -359.648438 Z M 591.464844 -128.996094 " clip-rule="nonzero"/></clipPath><clipPath id="c5472c3f4a"><path d="M 591.464844 -128.996094 L 324.84375 488.667969 L -209.5 258.011719 L 57.121094 -359.648438 Z M 591.464844 -128.996094 " clip-rule="nonzero"/></clipPath><clipPath id="f00cfd4060"><path d="M 0 0 L 474 0 L 474 312 L 0 312 Z M 0 0 " clip-rule="nonzero"/></clipPath><clipPath id="aa1482ff75"><path d="M 591.464844 -128.996094 L 324.84375 488.667969 L -209.5 258.011719 L 57.121094 -359.648438 Z M 591.464844 -128.996094 " clip-rule="nonzero"/></clipPath><clipPath id="a4a9477879"><path d="M 591.464844 -128.996094 L 324.84375 488.667969 L -209.5 258.011719 L 57.121094 -359.648438 Z M 591.464844 -128.996094 " clip-rule="nonzero"/></clipPath></defs><rect x="-144" width="1728" fill="#ffffff" y="-80.999999" height="971.999992" fill-opacity="1"/><rect x="-144" width="1728" fill="#ffffff" y="-80.999999" height="971.999992" fill-opacity="1"/><g clip-path="url(#02fb37c18d)"><g clip-path="url(#e119b6cd00)"><g clip-path="url(#794e976511)"><path fill="#bcb7b2" d="M -45.75 861.246094 C -37.363281 843.082031 -24.464844 827.777344 -12.257812 812.289062 C 5.25 790.214844 15.488281 765.476562 19.652344 737.878906 C 23.453125 713.53125 27.441406 689.125 35.496094 665.644531 C 47.707031 630.640625 60.289062 595.820312 83.398438 565.910156 C 104.578125 538.632812 131.324219 530.980469 164.007812 540.945312 C 189.238281 548.617188 207.496094 565.011719 224.632812 583.65625 C 232.726562 592.511719 239.953125 601.871094 249.671875 609.347656 C 270.175781 624.980469 293.027344 632.097656 318.613281 632.140625 C 344.882812 632.058594 370.972656 634.226562 396.636719 640.398438 C 440.332031 650.828125 477.492188 671.910156 504.128906 708.855469 C 504.882812 709.851562 505.574219 710.976562 506.457031 712.035156 C 535.867188 754.726562 536.546875 810.957031 509.605469 855.203125 C 507.429688 858.648438 505.3125 862.285156 503.011719 865.667969 C 488.320312 888.046875 489.023438 911.5 499.542969 935.296875 C 507.484375 953.597656 518.484375 970.140625 529.234375 986.867188 C 532.816406 992.546875 536.527344 998.289062 540.109375 1003.972656 C 569.851562 1051.976562 574.523438 1103.625 561.058594 1157.523438 C 556.121094 1177.242188 548.988281 1196.03125 536.59375 1212.523438 C 515.355469 1241.175781 482.671875 1249.789062 449.785156 1235.195312 C 431.496094 1227.058594 417.128906 1214.160156 404.632812 1199.0625 C 392.136719 1183.964844 382.136719 1167.296875 371.515625 1150.941406 C 361.519531 1135.527344 351.085938 1120.359375 337.722656 1107.644531 C 313.816406 1084.703125 284.570312 1073.476562 252.09375 1069.703125 C 225.941406 1066.722656 199.730469 1066.367188 173.582031 1065.265625 C 137.546875 1063.628906 101.757812 1059.617188 67.691406 1047.089844 C 24.417969 1031.09375 -14.3125 1008.449219 -39.589844 967.8125 C -55.9375 941.59375 -62.46875 913.53125 -54.75 882.855469 C -52.710938 875.28125 -48.855469 868.453125 -45.75 861.246094 Z M -45.75 861.246094 " fill-opacity="1" fill-rule="nonzero"/></g></g></g><g clip-path="url(#fe5d8b14b5)"><g clip-path="url(#ec4d7b212a)"><g clip-path="url(#87cc54d7bf)"><path fill="#bcb7b2" d="M 1600.292969 -124.644531 C 1609.304688 -99.824219 1611.429688 -73.496094 1614.367188 -47.632812 C 1618.460938 -10.679688 1631.839844 22.023438 1653.566406 51.765625 C 1672.617188 78.117188 1691.550781 104.703125 1705.808594 134.199219 C 1726.875 178.355469 1747.417969 222.6875 1753.535156 272.195312 C 1759.015625 317.4375 1741.050781 349.457031 1701.152344 370.472656 C 1670.367188 386.714844 1638.03125 388.304688 1604.644531 386.738281 C 1588.828125 385.957031 1573.363281 383.890625 1557.308594 385.910156 C 1523.566406 390.300781 1495.527344 404.851562 1471.503906 428.574219 C 1446.953125 453.054688 1420.480469 475.253906 1390.6875 493.308594 C 1340.035156 524.113281 1285.613281 538.863281 1226.324219 528.972656 C 1224.691406 528.734375 1223 528.324219 1221.1875 528.148438 C 1153.964844 515.441406 1101.097656 463.359375 1085.257812 396.855469 C 1084.097656 391.601562 1082.707031 386.226562 1081.71875 380.914062 C 1074.707031 346.292969 1052.265625 324.957031 1020.296875 312.417969 C 995.855469 302.636719 970.179688 297.347656 944.5625 291.648438 C 935.925781 289.652344 927.117188 287.710938 918.480469 285.714844 C 846.007812 268.335938 793.65625 224.25 756.214844 161.214844 C 742.53125 138.140625 731.765625 113.902344 728.070312 86.929688 C 721.363281 40.34375 744.007812 1.910156 788.394531 -14.957031 C 813.097656 -24.316406 838.546875 -25.566406 864.285156 -23.019531 C 890.023438 -20.472656 914.878906 -14.132812 940.027344 -8.667969 C 963.71875 -3.5 987.585938 1.03125 1011.925781 0.539062 C 1055.644531 -0.15625 1093.492188 -16.796875 1127.445312 -43.425781 C 1154.734375 -64.921875 1179.632812 -88.9375 1205.171875 -112.191406 C 1240.472656 -144.125 1277.753906 -173.609375 1321.328125 -193.507812 C 1376.757812 -218.703125 1434.097656 -233.449219 1495.539062 -218.828125 C 1535.214844 -209.429688 1567.40625 -189.1875 1588.660156 -153.261719 C 1593.785156 -144.265625 1596.515625 -134.28125 1600.292969 -124.644531 Z M 1600.292969 -124.644531 " fill-opacity="1" fill-rule="nonzero"/></g></g></g><g clip-path="url(#d108a947a5)"><g clip-path="url(#b24a3a9c57)"><g clip-path="url(#24ab4d17a2)"><path fill="#bcb7b2" d="M 925.515625 688.191406 C 943.265625 686.511719 960.832031 689.589844 978.234375 692.058594 C 1003.082031 695.652344 1026.730469 692.457031 1049.855469 683.300781 C 1070.3125 675.320312 1090.898438 667.453125 1112.597656 663.140625 C 1145.035156 656.859375 1177.496094 650.957031 1210.890625 655.355469 C 1241.394531 659.449219 1259.273438 676.625 1266.242188 706.265625 C 1271.632812 729.140625 1267.1875 750.550781 1260.5 772.105469 C 1257.304688 782.308594 1253.332031 792.066406 1251.929688 802.902344 C 1249.070312 825.703125 1253.828125 846.5 1265.257812 866.226562 C 1277.09375 886.425781 1287.113281 907.496094 1293.855469 930.03125 C 1305.398438 968.363281 1305.804688 1006.4375 1289.28125 1043.511719 C 1288.851562 1044.539062 1288.296875 1045.574219 1287.871094 1046.726562 C 1268.164062 1088.511719 1225.152344 1114.230469 1178.996094 1113.300781 C 1175.367188 1113.167969 1171.617188 1113.164062 1167.980469 1112.90625 C 1144.160156 1111.617188 1126.40625 1122.667969 1112.789062 1141.433594 C 1102.246094 1155.753906 1094.433594 1171.636719 1086.363281 1187.414062 C 1083.59375 1192.71875 1080.832031 1198.148438 1078.0625 1203.453125 C 1054.40625 1247.875 1016.710938 1274.613281 969.15625 1288.390625 C 951.753906 1293.421875 934.085938 1296.34375 915.828125 1294.183594 C 884.242188 1290.664062 862.960938 1269.34375 859.46875 1237.472656 C 857.539062 1219.738281 861.042969 1202.890625 867.074219 1186.5 C 873.105469 1170.109375 881.464844 1154.9375 889.300781 1139.425781 C 896.699219 1124.820312 903.710938 1109.988281 907.519531 1093.996094 C 914.480469 1065.300781 910.023438 1037.742188 898.382812 1011.03125 C 888.957031 989.550781 877.488281 969.199219 866.621094 948.5625 C 851.738281 920.070312 838.792969 890.703125 833.175781 858.847656 C 826.113281 818.34375 826.203125 778.363281 846.183594 740.683594 C 859.054688 716.34375 877.746094 698.738281 904.835938 690.941406 C 911.585938 689.117188 918.574219 689.027344 925.515625 688.191406 Z M 925.515625 688.191406 " fill-opacity="1" fill-rule="nonzero"/></g></g></g><g clip-path="url(#8502f7342e)"><g clip-path="url(#953e64ca56)"><g clip-path="url(#303d8df0df)"><path fill="#807f85" d="M 1498.398438 446.132812 C 1472.921875 419.566406 1434.585938 405.953125 1398.074219 410.476562 C 1361.546875 414.996094 1327.703125 437.566406 1309.492188 469.546875 C 1286.015625 510.757812 1287.222656 565.519531 1253.714844 599.089844 C 1226.347656 626.507812 1183.910156 631.160156 1145.191406 630.4375 C 1106.46875 629.710938 1066.125 625.464844 1030.367188 640.347656 C 982.6875 660.191406 953.222656 712.667969 952.703125 764.296875 C 952.179688 815.941406 977.195312 865.554688 1012.921875 902.851562 C 1048.644531 940.144531 1094.382812 966.347656 1141.429688 987.667969 C 1241.027344 1032.800781 1362.84375 1025.585938 1441.769531 949.90625 C 1502.550781 891.628906 1529.667969 805.0625 1532.703125 720.902344 C 1535.734375 636.746094 1516.84375 528.289062 1498.414062 446.121094 Z M 1498.398438 446.132812 " fill-opacity="1" fill-rule="nonzero"/></g></g></g><g clip-path="url(#bf1e595e08)"><g clip-path="url(#e5ed6f255e)"><g clip-path="url(#1e7df6746a)"><path fill="#d89c6c" d="M 1260.074219 1008.257812 C 1224.128906 1006.117188 1188.804688 997.253906 1155.882812 982.675781 C 1122.820312 968.03125 1092.222656 947.675781 1065.949219 922.8125 C 1039.828125 898.089844 1017.910156 868.910156 1002.109375 836.566406 C 984.203125 799.890625 972.730469 756.695312 983.921875 716.257812 C 993.480469 681.703125 1018.613281 652.394531 1054.386719 644.273438 C 1087.433594 636.773438 1121.824219 645.101562 1154.636719 649.90625 C 1185.863281 654.480469 1220.113281 657.210938 1248.15625 639.847656 C 1279.023438 620.726562 1292.261719 584.222656 1299.253906 550.34375 C 1307.589844 509.9375 1310.589844 467.082031 1336.695312 433.234375 C 1358.003906 405.597656 1390.191406 386.5 1424.644531 381.019531 C 1433.148438 379.660156 1441.757812 379.1875 1450.359375 379.5625 C 1452.488281 379.648438 1452.78125 376.332031 1450.632812 376.242188 C 1415.824219 374.730469 1381.21875 387.386719 1354.65625 409.761719 C 1341.417969 420.914062 1330.15625 434.503906 1322.050781 449.828125 C 1312.113281 468.578125 1307.148438 489.375 1303.253906 510.097656 C 1296.050781 548.488281 1291.671875 590.972656 1264.695312 621.554688 C 1253.050781 634.757812 1237.5625 643.644531 1220.417969 647.445312 C 1204.179688 651.058594 1187.355469 650.460938 1170.929688 648.679688 C 1136.9375 645.003906 1102.957031 635.523438 1068.53125 638.707031 C 1052.019531 640.230469 1035.9375 645.207031 1022.171875 654.589844 C 1007.671875 664.496094 996.425781 678.636719 988.703125 694.316406 C 970.6875 730.917969 974.300781 773.195312 987.582031 810.6875 C 1000.140625 846.148438 1020.601562 878.890625 1045.710938 906.824219 C 1070.824219 934.757812 1099.140625 956.792969 1131.144531 974.1875 C 1163.148438 991.585938 1197.398438 1003.375 1233.097656 1008.808594 C 1241.957031 1010.15625 1250.855469 1011.074219 1259.796875 1011.609375 C 1261.9375 1011.742188 1262.214844 1008.421875 1260.070312 1008.289062 Z M 1260.074219 1008.257812 " fill-opacity="1" fill-rule="nonzero"/></g></g></g><g clip-path="url(#5f572645b8)"><g clip-path="url(#e31a2236b8)"><g clip-path="url(#dcaabc1e89)"><path fill="#807f85" d="M 1055.847656 -18.195312 C 1061.226562 9.152344 1075.566406 44.664062 1092.652344 71.308594 C 1109.734375 97.953125 1129.585938 115.734375 1144.816406 129.722656 C 1160.042969 143.710938 1170.671875 153.914062 1186.191406 160.875 C 1201.710938 167.820312 1222.117188 171.515625 1243.691406 176.160156 C 1265.261719 180.804688 1287.976562 186.398438 1308.253906 193.621094 C 1328.523438 200.832031 1346.347656 209.679688 1375.46875 211.546875 C 1404.589844 213.402344 1445.003906 208.292969 1473.375 196.78125 C 1501.757812 185.269531 1518.085938 167.355469 1536.257812 149.839844 C 1554.425781 132.320312 1574.417969 115.199219 1583.234375 70.558594 C 1592.050781 25.921875 1589.691406 -46.234375 1570.199219 -105.117188 C 1550.71875 -164.011719 1514.117188 -209.652344 1475.03125 -224.148438 C 1435.949219 -238.648438 1394.382812 -222.003906 1358.121094 -204.417969 C 1321.875 -186.832031 1290.921875 -168.308594 1250.960938 -165.632812 C 1211 -162.972656 1162.011719 -176.175781 1129.011719 -178.628906 C 1095.996094 -181.085938 1078.957031 -172.808594 1069.722656 -155.234375 C 1060.488281 -137.664062 1059.054688 -110.78125 1056.546875 -87.75 C 1054.050781 -64.726562 1050.46875 -45.542969 1055.847656 -18.195312 Z M 1055.847656 -18.195312 " fill-opacity="1" fill-rule="evenodd"/></g></g></g><g clip-path="url(#53358eed3e)"><g clip-path="url(#c3b35e1e51)"><g clip-path="url(#2841c0dc0f)"><path fill="#d89c6c" d="M 1148.851562 -193.023438 C 1131.941406 -141.859375 1114.046875 -77.851562 1106.089844 -16.691406 C 1098.167969 44.125 1100.046875 102.0625 1122.480469 141.488281 C 1142.523438 176.722656 1179.195312 197.375 1221.65625 207.285156 C 1274.027344 219.488281 1335.117188 215.367188 1384.84375 202.058594 C 1427.332031 190.667969 1461.484375 172.574219 1488.726562 149.886719 C 1519.285156 124.441406 1541.222656 93.167969 1556.566406 59.082031 C 1570.90625 27.203125 1579.507812 -7.15625 1582.394531 -39.601562 C 1585.34375 -72.78125 1582.300781 -103.9375 1573.332031 -128.398438 C 1564.964844 -151.171875 1551.414062 -168.109375 1534.382812 -180.019531 C 1515.589844 -193.15625 1492.511719 -200.222656 1467.449219 -202.257812 C 1453 -203.425781 1437.75 -202.925781 1422.507812 -202.425781 C 1386.191406 -201.246094 1349.855469 -200.054688 1321.5625 -221.070312 C 1300.882812 -236.414062 1285.054688 -263.308594 1270.90625 -287.367188 C 1257.972656 -309.34375 1246.476562 -328.871094 1234.769531 -333.804688 C 1223.367188 -338.609375 1210.601562 -329.03125 1196.5 -306.296875 C 1181.636719 -282.300781 1165.742188 -244.105469 1148.851562 -193.023438 Z M 1099.957031 -17.464844 C 1107.972656 -79.105469 1125.96875 -143.503906 1142.984375 -194.945312 C 1160.019531 -246.484375 1176.105469 -285.121094 1191.25 -309.550781 C 1207.179688 -335.246094 1222.476562 -345.695312 1237.160156 -339.515625 C 1250.78125 -333.78125 1262.753906 -313.417969 1276.234375 -290.511719 C 1290.085938 -266.960938 1305.578125 -240.621094 1325.246094 -226.027344 C 1351.8125 -206.308594 1387.070312 -207.457031 1422.316406 -208.617188 C 1437.703125 -209.117188 1453.105469 -209.613281 1467.976562 -208.417969 C 1494.089844 -206.285156 1518.207031 -198.894531 1537.929688 -185.09375 C 1555.964844 -172.480469 1570.316406 -154.578125 1579.140625 -130.527344 C 1588.429688 -105.234375 1591.574219 -73.132812 1588.550781 -39.039062 C 1585.609375 -5.9375 1576.839844 29.105469 1562.203125 61.613281 C 1546.5 96.527344 1524.027344 128.542969 1492.691406 154.636719 C 1464.785156 177.890625 1429.851562 196.40625 1386.445312 208.027344 C 1335.859375 221.578125 1273.660156 225.761719 1220.246094 213.304688 C 1176.226562 203.027344 1138.097656 181.46875 1117.109375 144.558594 C 1093.914062 103.785156 1091.894531 44.523438 1099.957031 -17.464844 Z M 1099.957031 -17.464844 " fill-opacity="1" fill-rule="evenodd"/></g></g></g><g clip-path="url(#8511024ee0)"><g clip-path="url(#ce1e36d4ff)"><g clip-path="url(#51c04dae68)"><path fill="#807f85" d="M 407.15625 799.691406 L 403.628906 795.066406 C 379.992188 760.421875 338.328125 720.261719 278.640625 674.582031 C 227.886719 638.15625 186.070312 615.230469 153.191406 605.800781 C 121.648438 596.578125 101.054688 592.257812 91.410156 592.835938 C 76.234375 591.917969 61.035156 592.578125 45.816406 594.8125 C -0.238281 602.832031 -44.671875 619.148438 -87.480469 643.757812 C -142.839844 673.726562 -191 707.011719 -231.957031 743.613281 C -266.429688 779.4375 -285.039062 806.992188 -287.785156 826.273438 C -296.308594 843.460938 -293.253906 876.386719 -278.613281 925.050781 L -223.792969 1064.183594 C -210.921875 1092.035156 -199.414062 1112.214844 -189.269531 1124.71875 C -150.996094 1175.023438 -86.195312 1216.929688 5.121094 1250.445312 L 129.691406 1294.238281 C 158.183594 1302.683594 175.222656 1306.835938 180.808594 1306.695312 C 208.785156 1308.640625 225.371094 1308.1875 230.566406 1305.335938 C 242.335938 1302.480469 251.910156 1298.808594 259.289062 1294.324219 C 280.792969 1283.683594 301.835938 1257.535156 322.417969 1215.878906 C 354.363281 1143.171875 381.324219 1069.691406 403.304688 995.4375 C 421.421875 936.964844 430.003906 898.527344 429.058594 880.121094 C 430.472656 850.871094 423.171875 824.0625 407.15625 799.691406 " fill-opacity="1" fill-rule="nonzero"/></g></g></g><g clip-path="url(#f733c921b4)"><g clip-path="url(#d49457908f)"><g clip-path="url(#19f73536f0)"><path fill="#d89c6c" d="M 440.65625 854.550781 C 440.6875 854.375 449.453125 803.332031 443.796875 779.039062 C 443.351562 777.125 442.867188 775.207031 442.339844 773.289062 C 430.929688 731.820312 400.796875 690.871094 362.140625 673.761719 C 334.949219 661.726562 301.941406 667.453125 271.851562 673.324219 C 257.890625 676.046875 243.90625 679.320312 229.863281 682.609375 C 215.785156 685.902344 201.644531 689.214844 187.460938 691.980469 C 162.230469 696.902344 136.773438 700.121094 111.097656 698.476562 C 73.3125 696.050781 37.367188 680.855469 1.964844 665.914062 C -33.316406 651.019531 -68.058594 636.378906 -104.171875 634.0625 C -110.371094 633.664062 -116.601562 633.628906 -122.878906 634.019531 C -171.964844 637.070312 -212.324219 681.117188 -244.917969 719.640625 C -300.183594 784.957031 -351.019531 876.261719 -333.257812 958.964844 C -332.445312 962.746094 -331.523438 966.492188 -330.496094 970.21875 C -321.023438 1004.660156 -302.902344 1036.808594 -284.300781 1067.726562 C -248.78125 1126.777344 -206.421875 1181.925781 -160.515625 1233.394531 C -129.800781 1267.832031 -97.417969 1301.171875 -61.039062 1329.332031 C -34.242188 1350.082031 2.300781 1371.605469 32.984375 1361.035156 C 63.285156 1350.597656 84.726562 1321.164062 103.46875 1293.992188 C 116.308594 1275.382812 127.957031 1256 139.65625 1236.535156 C 149.480469 1220.191406 159.34375 1203.78125 169.910156 1187.847656 C 200.566406 1141.609375 239.46875 1101.640625 278.128906 1061.910156 C 291.757812 1047.902344 305.339844 1033.941406 318.566406 1019.707031 C 348.503906 987.496094 378.175781 954.925781 403.921875 919.453125 C 418.582031 899.257812 440.8125 854.035156 440.84375 853.972656 L 440.65625 854.550781 M 444.882812 855.28125 C 444.847656 855.484375 444.785156 855.679688 444.695312 855.863281 C 444.722656 855.800781 422.316406 901.410156 407.394531 921.972656 C 381.476562 957.679688 351.644531 990.414062 321.707031 1022.628906 C 308.445312 1036.902344 294.820312 1050.902344 281.199219 1064.898438 C 242.492188 1104.679688 203.882812 1144.371094 173.484375 1190.21875 C 162.976562 1206.066406 153.167969 1222.382812 143.332031 1238.742188 C 131.640625 1258.195312 119.929688 1277.683594 107 1296.429688 C 88.414062 1323.371094 66.234375 1354.117188 34.382812 1365.089844 C 1.253906 1376.503906 -37.097656 1353.292969 -63.664062 1332.722656 C -100.347656 1304.324219 -132.933594 1270.765625 -163.714844 1236.25 C -209.757812 1184.625 -252.289062 1129.261719 -287.976562 1069.9375 C -306.578125 1039.015625 -324.988281 1006.421875 -334.632812 971.359375 C -335.679688 967.550781 -336.617188 963.734375 -337.449219 959.867188 C -355.664062 875.0625 -303.589844 782.34375 -248.191406 716.871094 C -215.875 678.675781 -174.363281 632.925781 -123.144531 629.742188 C -116.675781 629.339844 -110.261719 629.375 -103.898438 629.78125 C -66.929688 632.15625 -31.507812 647.128906 3.632812 661.960938 C 39.171875 676.964844 74.4375 691.824219 111.371094 694.195312 C 136.523438 695.808594 161.574219 692.660156 186.640625 687.773438 C 200.734375 685.023438 214.792969 681.730469 228.886719 678.433594 C 242.917969 675.148438 256.976562 671.855469 271.027344 669.113281 C 300.855469 663.296875 335.246094 657.167969 363.878906 669.839844 C 403.960938 687.582031 434.804688 729.730469 446.472656 772.152344 C 447.015625 774.125 447.515625 776.097656 447.976562 778.070312 C 453.871094 803.402344 444.851562 855.457031 444.882812 855.28125 Z M 444.882812 855.28125 " fill-opacity="0.961" fill-rule="nonzero"/></g></g></g><g clip-path="url(#1f5df432e5)"><g clip-path="url(#6d9545e28d)"><g clip-path="url(#c5472c3f4a)"><path fill="#807f85" d="M -127.398438 221.3125 C -111.71875 254.617188 -79.730469 279.742188 -43.679688 287.097656 C -7.617188 294.457031 31.65625 283.859375 59.113281 259.355469 C 94.507812 227.78125 110.820312 175.492188 153.285156 154.355469 C 187.964844 137.097656 229.671875 146.21875 266.140625 159.25 C 302.609375 172.285156 339.492188 189.171875 378.128906 186.472656 C 429.648438 182.867188 474.308594 142.523438 491.265625 93.753906 C 508.226562 44.972656 500.335938 -10.027344 478.367188 -56.765625 C 456.398438 -103.507812 421.40625 -142.925781 383.609375 -178.136719 C 303.605469 -252.667969 185.84375 -284.671875 86.910156 -238.109375 C 10.714844 -202.253906 -42.589844 -128.851562 -72.296875 -50.054688 C -102.007812 28.746094 -118.683594 137.5625 -127.414062 221.320312 Z M -127.398438 221.3125 " fill-opacity="1" fill-rule="nonzero"/></g></g></g><g clip-path="url(#f00cfd4060)"><g clip-path="url(#aa1482ff75)"><g clip-path="url(#a4a9477879)"><path fill="#d89c6c" d="M 277.726562 -235.480469 C 311.109375 -221.988281 341.765625 -202.324219 368.320312 -178.011719 C 394.988281 -153.585938 417.5 -124.539062 434.472656 -92.59375 C 451.347656 -60.835938 462.816406 -26.1875 467.480469 9.503906 C 472.757812 49.976562 469.855469 94.574219 446.355469 129.332031 C 426.277344 159.035156 393.113281 178.800781 356.617188 175.089844 C 322.902344 171.660156 292.960938 152.804688 263.394531 137.785156 C 235.257812 123.492188 203.667969 109.988281 171.546875 117.5 C 136.199219 125.78125 112.007812 156.160156 94.578125 186.039062 C 73.796875 221.679688 57.289062 261.339844 21.753906 285.097656 C -7.257812 304.496094 -43.851562 312.335938 -78.257812 306.542969 C -86.75 305.121094 -95.0625 302.820312 -103.09375 299.726562 C -105.085938 298.960938 -106.417969 302.015625 -104.410156 302.785156 C -71.902344 315.316406 -35.066406 314.355469 -2.757812 301.617188 C 13.347656 295.269531 28.351562 285.980469 40.921875 274.042969 C 56.320312 259.4375 67.660156 241.308594 77.957031 222.910156 C 97.023438 188.820312 114.722656 149.949219 150.042969 129.5625 C 165.289062 120.761719 182.800781 117.28125 200.261719 119.140625 C 216.804688 120.898438 232.558594 126.828125 247.5625 133.753906 C 278.605469 148.074219 307.792969 167.894531 341.4375 175.855469 C 357.570312 179.679688 374.402344 180.089844 390.4375 175.582031 C 407.34375 170.820312 422.511719 161.003906 434.828125 148.601562 C 463.574219 119.65625 473.628906 78.4375 472.996094 38.664062 C 472.402344 1.050781 463.449219 -36.507812 448.554688 -70.988281 C 433.660156 -105.472656 413.847656 -135.386719 389.0625 -162.078125 C 364.277344 -188.769531 335.570312 -210.867188 303.46875 -227.402344 C 295.5 -231.5 287.363281 -235.207031 279.058594 -238.566406 C 277.070312 -239.375 275.75 -236.316406 277.738281 -235.507812 Z M 277.726562 -235.480469 " fill-opacity="1" fill-rule="nonzero"/></g></g></g></svg>